<?xml version="1.0" ?><!DOCTYPE svg  PUBLIC '-//W3C//DTD SVG 1.1//EN'  'http://www.w3.org/Graphics/SVG/1.1/DTD/svg11.dtd'><svg enable-background="new 0 0 24 24" height="24px" id="Layer_1" version="1.1" viewBox="0 0 24 24" width="24px" xml:space="preserve" xmlns="http://www.w3.org/2000/svg" xmlns:xlink="http://www.w3.org/1999/xlink"><path d="M23.5,22.3L13.1,4.5l1.6-2.8c0.2-0.5,0.4-1.1-0.1-1.5c-0.5-0.4-0.9-0.2-1.3,0.1L12,2.6l-1.3-2.1C10.5,0.1,10-0.3,9.4,0.1  C8.7,0.6,8.8,1,9.1,1.5l1.8,3l-10.5,18c0,0-0.6,0.7-0.3,1.2C0.5,24.1,0.9,24,1.4,24H10v-6.8c0-1.1,0.9-2,2-2s2,0.9,2,2V24h8.7  c0.6,0,0.9,0.2,1.2-0.4C24.2,23.2,23.6,22.3,23.5,22.3z M9,22H2.8L4,20h5V22z M12,14.2c-1.7,0-3,1.3-3,3V19H4.6L12,6.2L19.5,19H15  v-1.8C15,15.6,13.7,14.2,12,14.2z M15,22v-2h5l1.2,2H15z"/></svg>