<?xml version="1.0" ?><!DOCTYPE svg  PUBLIC '-//W3C//DTD SVG 1.1//EN'  'http://www.w3.org/Graphics/SVG/1.1/DTD/svg11.dtd'><svg enable-background="new 0 0 512 512" height="512px" id="Layer_1" version="1.1" viewBox="0 0 512 512" width="512px" xml:space="preserve" xmlns="http://www.w3.org/2000/svg" xmlns:xlink="http://www.w3.org/1999/xlink"><path d="M473.131,449.631c-17.299,2.773-34.223,7.452-51.311,11.276c-7.65,1.699-15.594,2.249-23.316,3.711  c-4.516,0.853-9.209,2.437-13.879,3.085c1.428-0.451,2.717-0.854,3.611-1.182c5.99-2.307,12.221-3.874,18.359-5.696  c10.102-3.004,20.738-4.497,29.686-10.448c2.463-1.641,1.846-6.476-1.658-6.114c-10.096,1.052-20.387,2.422-30.398,4.161  c-11.221,1.945-22.127,5.352-33.34,7.387c-1.492,0.271-2.971,0.542-4.465,0.813c6.953-1.971,13.904-3.98,20.707-6.419  c3.391-1.206,9.439-2.773,8.643-7.468c-0.229-1.388-1.812-2.446-3.158-2.413c-11.213,0.319-22.217,3.57-33.281,5.22  c-5.631,0.836-11.27,1.608-16.891,2.453c1.354-0.714,2.502-1.601,3.109-2.732c1.068-1.979-0.213-5.236-2.83-4.94  c-23.67,2.699-46.996,7.271-70.254,12.179c2.971-1.411,5.768-3.11,8.246-5.26c2.209-1.929,0.404-5.623-2.33-5.606  c-10.882,0.065-21.93,2.347-32.755,3.521c-12.352,1.338-24.621,3.424-36.76,6.017c-4.234,0.895-8.486,1.715-12.737,2.52  c4.529-1.395,9.053-2.814,13.549-4.301c4.063-1.33,2.381-7.059-1.748-6.327c-9.331,1.665-18.884,2.117-28.257,3.619  c-9.981,1.592-19.681,4.638-29.514,6.886c-2.701,0.623-5.409,1.23-8.109,1.83c6.738-2.216,13.428-4.58,19.829-7.641  c2.947-1.42,1.519-6.287-1.658-6.123c-6.598,0.336-12.836,2.643-19.254,4.055c-7.017,1.552-13.985,2.979-20.928,4.761  c0.197-1.772-0.846-3.661-3.144-3.562c-8.683,0.377-17.982,3.201-26.189,5.926c-7.23,2.413-15.996,3.365-22.077,8.165  c-1.913,1.503-0.821,5.024,1.444,5.483c4.67,0.944,9.094-0.689,13.559-1.929c7.797-2.167,15.997-3.587,23.999-4.843  c1.116-0.181,2.241-0.378,3.348-0.59c-2.7,0.977-5.425,1.92-8.174,2.79c-4.744,1.478-9.496,2.585-13.821,5.138  c-1.913,1.132-2.364,4.67,0,5.663c6.607,2.808,13.599-0.706,20.05-2.971c10.546-3.693,22.504-5.45,33.429-7.904  c6.041-1.354,12.072-2.807,18.096-4.234c-10.135,3.167-20.197,6.532-30.096,10.431c-3.225,1.272-3.094,6.6,0.886,6.442  c5.409-0.204,10.538-1.42,15.676-3.077c6.18-1.985,12.172-3.578,18.541-4.957c12.565-2.725,25.147-5.393,37.844-7.469  c13.345-2.191,26.427-5.317,39.887-6.96c5.753-0.705,11.49-1.502,17.218-2.183c-0.361,0.091-0.755,0.181-1.124,0.254  c-7.148,1.297-14.109,3.513-21.257,4.817c-6.312,1.149-12.819,4.269-18.909,6.304c-5.778,1.92-12,2.84-17.335,5.844  c-3.43,1.944-0.967,6.607,2.537,6.007c31.778-5.514,63.146-13.279,94.811-19.335c-6.469,1.73-12.951,3.495-19.295,5.63  c-3.383,1.148-6.723,2.388-10.07,3.603c-5.943,1.165-11.844,2.594-16.777,5.408c-3.298,1.888-1.042,6.862,2.528,6  c5.696-1.362,11.211-3.291,16.702-5.286c4.242-0.779,8.502-1.452,12.285-2.437c12.107-3.168,24.328-5.926,36.662-8.035  c11.631-1.986,23.105-4.366,34.824-6c0.361-0.049,0.73-0.106,1.084-0.164c-16.678,4.728-33.018,10.111-49.473,15.594  c-2.479,0.829-3.514,4.67-0.781,5.992c4.99,2.438,13.51-1.42,18.475-2.667c12.221-3.054,24.639-5.09,37.033-7.347  c11.801-2.142,23.471-4.727,35.174-7.107c-5.875,1.978-11.867,3.555-17.686,5.876c-3.227,1.289-7.059,1.953-9.332,4.785  c-1.641,2.052-0.961,4.49,1.453,5.49c6.172,2.521,12.516,1.511,18.818,0c9.678-2.338,19.443-3.89,29.316-5.138  c8.652-1.099,17.344-3.906,25.82-5.934c9.562-2.29,19.156-4.456,28.891-6.008C479.057,455.294,477.275,448.966,473.131,449.631z" fill="#B3B3B3"/><g><g><path d="M93.988,70.52c-4.875,8.651-6.771,20.116-9.463,29.661c-3.144,11.162-5.458,22.472-7.772,33.822    c-1.724,8.462-2.667,16.973-2.922,25.607c-0.082,2.684,1.37,5.375,4.145,3.365c1.551-1.124,0.057-3.743-1.519-2.594    c1.953-1.419,1.494-15.93,1.683-17.268c1.125-8.051,2.946-16.127,4.752-24.055c1.773-7.797,3.784-15.544,6.016-23.235    c2.216-7.625,3.784-16.866,7.691-23.776C97.55,70.355,94.948,68.829,93.988,70.52z" fill="#1F8AFF"/><path d="M107.399,67.869c-3.103,8.117-6.788,15.225-8.922,23.752c-2.405,9.602-3.767,19.459-5.589,29.185    c-1.576,8.413-3.201,16.809-4.851,25.205c-1.731,8.864-1.781,17.219-1.781,26.214c0,1.937,3.012,1.937,3.012,0    c0-9.545,0.345-18.59,2.184-27.987c1.657-8.47,3.266-16.923,4.858-25.401c1.649-8.823,3.045-17.67,5.072-26.419    c1.97-8.438,5.86-15.742,8.93-23.752C111.002,66.851,108.088,66.072,107.399,67.869z" fill="#1F8AFF"/><path d="M130.15,61.483c-12.229,20.396-19.386,42.473-24.647,65.65c-2.388,10.489-4.661,20.806-5.441,31.565    c-0.377,5.064-2.725,15.241,1.699,19.106c0.96,0.837,2.577,0.32,2.577-1.059v-1.51c0-0.977-0.763-1.461-1.518-1.461    c-0.895-2.946,0.008-7.641,0.033-10.037c0.049-4.284,0.46-8.552,0.936-12.804c1.19-10.489,3.989-21.051,6.616-31.261    c2.331-9.028,5.277-17.892,8.083-26.78c3.415-10.809,8.462-20.19,14.273-29.891C133.752,61.336,131.151,59.817,130.15,61.483z" fill="#1F8AFF"/><path d="M140.934,62.682c-3.061,3.743-4.251,7.871-4.867,12.606c-1.108,8.454-4.768,16.833-6.615,25.188    c-3.316,15.036-7.731,29.94-9.734,45.238c-0.181,0.23-0.32,0.517-0.32,0.895v1.51c0,1.986,2.807,1.887,3.021,0    c1.6-14.232,5.802-27.864,8.979-41.784c1.616-7.042,3.053-14.018,5.096-20.961c1.896-6.394,2.363-15.421,6.574-20.559    C144.282,63.322,142.165,61.18,140.934,62.682z" fill="#1F8AFF"/><path d="M155.56,65.259c-0.666,5.211-4.514,10.432-5.589,15.799c-1.042,5.171-1.798,10.407-2.808,15.594    c-2.174,11.162-7.476,22.069-8.182,33.387c-0.115,1.945,2.905,1.929,3.012,0c0.452-7.157,3.34-13.477,5.31-20.255    c1.625-5.565,2.561-11.334,3.686-17.005c1.001-5.122,1.608-10.317,2.913-15.381c1.125-4.424,4.087-7.583,4.671-12.139    C158.818,63.331,155.806,63.363,155.56,65.259z" fill="#1F8AFF"/><path d="M169.562,68.714c-8.232,7.485-10.358,21.142-12.853,31.491c-0.854,3.521-8.552,19.09-5.22,21.856    c1.477,1.239,3.619-0.878,2.125-2.117c0.263,0.213,2.044-6.238,2.593-7.97c1.256-3.948,2.651-7.862,3.629-11.9    c2.29-9.504,4.374-22.422,11.859-29.226C173.131,69.535,170.99,67.401,169.562,68.714z" fill="#1F8AFF"/><path d="M183.784,74.344c-4.678,1.633-6.902,4.777-8.61,9.316c-3.266,8.658-7.008,17.325-9.011,26.386    c-0.427,1.903,2.479,2.708,2.905,0.812c1.437-6.5,3.611-12.623,6.377-18.671c2.495-5.45,2.512-12.631,9.135-14.929    C186.41,76.618,185.623,73.712,183.784,74.344z" fill="#1F8AFF"/><path d="M186.796,80.377c-2.865,1.19-3.833,5.532-4.071,8.331c-0.607,7.402-1.649,14.461-4.514,21.339    c-0.739,1.806,2.167,2.577,2.905,0.812c0.985-2.355,1.396-5.063,2.856-7.181c1.223-1.756,0.722-5.95,1.075-8.101    s-0.025-11.228,2.552-12.294C189.365,82.543,188.585,79.629,186.796,80.377z" fill="#1F8AFF"/><path d="M140.491,206.875v22.595c0,1.945,3.021,1.945,3.021,0v-22.595    C143.511,204.93,140.491,204.93,140.491,206.875z" fill="#1F8AFF"/><path d="M161.789,219.679c-5.811,10.44-3.217,25.467-3.217,36.917c0,1.937,3.012,1.937,3.012,0    c0-10.703-2.594-25.706,2.807-35.398C165.342,219.498,162.733,217.98,161.789,219.679z" fill="#1F8AFF"/><path d="M175.142,240.017c-0.099,10.07-1.404,20.066-1.502,30.137c-0.024,1.945,2.996,1.945,3.012,0    c0.098-10.07,1.403-20.066,1.501-30.137C178.178,238.08,175.158,238.08,175.142,240.017z" fill="#1F8AFF"/><path d="M190.21,256.596v40.675c0,1.937,3.012,1.937,3.012,0v-40.675C193.222,254.65,190.21,254.65,190.21,256.596    z" fill="#1F8AFF"/><path d="M208.291,273.165c-0.648,6.222-1.51,11.729-1.51,18.081v19.583c0,1.944,3.012,1.944,3.012,0v-17.26    c0-7.001,0.788-13.502,1.51-20.404C211.5,271.236,208.497,271.253,208.291,273.165z" fill="#1F8AFF"/><path d="M223.351,291.246v30.129c0,1.945,3.021,1.945,3.021,0v-30.129    C226.372,289.31,223.351,289.31,223.351,291.246z" fill="#1F8AFF"/><path d="M241.382,336.042c-3.028-8.519-1.542-17.868-1.452-26.715c0.017-1.945-3.004-1.945-3.012,0    c-0.09,9.135-1.567,18.721,1.552,27.519C239.126,338.668,242.031,337.881,241.382,336.042z" fill="#1F8AFF"/><path d="M254.999,318.363c-0.189,5.564-1.33,11.015-1.51,16.579c-0.206,6.008,0,12.057,0,18.072    c0,1.945,3.012,1.945,3.012,0v-18.072c0-5.564,1.321-11.015,1.502-16.579C258.068,316.418,255.056,316.427,254.999,318.363z" fill="#1F8AFF"/><path d="M270.059,336.444c0.025-1.945-2.996-1.945-3.012,0c-0.115,10.086-1.238,20.066,0,30.129    c0.238,1.903,3.25,1.929,3.012,0C268.82,356.511,269.953,346.53,270.059,336.444z" fill="#1F8AFF"/><path d="M282.107,350.003c0-1.945-3.012-1.945-3.012,0c0.008,11.08,0.057,22.151,1.51,33.141    c0.246,1.904,3.268,1.929,3.021,0C282.174,372.154,282.115,361.083,282.107,350.003z" fill="#1F8AFF"/><path d="M231.648,160.381c-4.727-3.036-4.038-9.659-3.832-14.519c0.238-6.262,0.065-12.565,0.065-18.835    c0-1.945-3.021-1.945-3.021,0c0,7.707-0.132,15.405-0.164,23.104c-0.025,5.006,1.01,10.013,5.425,12.844    C231.764,164.034,233.282,161.424,231.648,160.381z" fill="#1F8AFF"/><path d="M250.534,146.208c-2.708,10.07-3.069,20.165-3.069,30.539c0,1.945,3.003,1.945,3.003,0    c0.017-10.086,0.328-19.927,2.962-29.735C253.94,145.132,251.027,144.336,250.534,146.208z" fill="#1F8AFF"/><path d="M264.035,166.2c0,13.641-1.199,27.084-1.51,40.675c-0.042,1.937,2.971,1.937,3.012,0    c0.32-13.591,1.51-27.035,1.51-40.675C267.047,164.264,264.035,164.264,264.035,166.2z" fill="#1F8AFF"/><path d="M280.605,188.795v39.173c0,1.937,3.021,1.937,3.021,0v-39.173    C283.627,186.858,280.605,186.858,280.605,188.795z" fill="#1F8AFF"/><path d="M297.176,203.855v36.161c0,1.937,3.012,1.937,3.012,0v-36.161    C300.188,201.918,297.176,201.918,297.176,203.855z" fill="#1F8AFF"/><path d="M310.734,218.924v36.162c0,1.937,3.012,1.937,3.012,0v-36.162    C313.746,216.987,310.734,216.987,310.734,218.924z" fill="#1F8AFF"/><path d="M328.814,233.993c-0.641,5.564-1.51,10.391-1.51,16.119v24.556c0,1.945,3.02,1.945,3.02,0v-22.595    c0-6.278,0.789-11.909,1.512-18.081C332.049,232.072,329.045,232.088,328.814,233.993z" fill="#1F8AFF"/><path d="M346.887,244.539v49.719c0,1.938,3.021,1.938,3.021,0v-49.719    C349.908,242.602,346.887,242.602,346.887,244.539z" fill="#1F8AFF"/><path d="M359.002,268.241c-2.898,13.042-1.65,26.345-1.561,39.575c0.01,1.945,3.029,1.945,3.014,0    c-0.092-12.941-1.387-26.008,1.453-38.779C362.326,267.149,359.42,266.346,359.002,268.241z" fill="#1F8AFF"/><path d="M375.572,284.82c-1.387,9.635-2.947,19.263-3.061,29.021c-0.025,1.945,2.986,1.945,3.004,0    c0.113-9.487,1.617-18.844,2.971-28.225C378.756,283.721,375.852,282.899,375.572,284.82z" fill="#1F8AFF"/><path d="M384.568,298.781v31.63c0,1.945,3.012,1.945,3.012,0v-31.63    C387.58,296.844,384.568,296.844,384.568,298.781z" fill="#1F8AFF"/><path d="M325.754,408.356c-1.338-4.309-1.453-8.684-1.453-13.157c0-1.937-3.02-1.937-3.02,0    c0,4.736,0.154,9.406,1.559,13.953C323.414,411.008,326.328,410.22,325.754,408.356z" fill="#1F8AFF"/><path d="M346.436,406.059c-1.617-3.718-2.535-6.78-2.553-10.859c-0.008-1.937-3.02-1.937-3.012,0    c0.01,2.808,0.164,5.45,0.994,8.15c1.074,3.455,3.273,6.173,3.52,9.931c0.141,1.93,3.145,1.937,3.021,0    C348.225,410.687,347.471,408.43,346.436,406.059z" fill="#1F8AFF"/><path d="M364.977,399.722c-0.016-1.945-3.037-1.945-3.012,0c0.09,8.306,1.436,16.375,3.061,24.5    c0.395,1.903,3.283,1.099,2.906-0.797C366.363,415.562,365.066,407.758,364.977,399.722z" fill="#1F8AFF"/><path d="M192.255,166.299c-1.322,5.08-2.069,8.06-2.069,13.468v16.727c0,5.392,0.385,10.816-0.985,16.086    c-1.264,4.867-2.766,9.332-3.029,14.387c-0.107,1.937,2.914,1.937,3.012,0c0.288-5.507,2.084-10.374,3.455-15.643    c1.051-4.054,0.559-8.52,0.559-12.656c0-10.678-0.731-21.191,1.96-31.565C195.652,165.216,192.738,164.427,192.255,166.299z" fill="#1F8AFF"/><path d="M222.383,198.438c-4.029,16.653-5.975,33.658-8.093,50.623c-0.229,1.928,2.774,1.903,3.012,0    c2.077-16.702,4.014-33.429,7.986-49.81C225.748,197.355,222.843,196.551,222.383,198.438z" fill="#1F8AFF"/><path d="M256.476,235.002c-0.008,9.241-0.861,17.605-3.546,26.461c-2.676,8.813-2.79,18.359-4.44,27.379    c-0.345,1.896,2.561,2.708,2.914,0.796c1.666-9.101,2.159-18.376,4.432-27.371c2.372-9.38,3.645-17.505,3.661-27.265    C259.496,233.057,256.476,233.057,256.476,235.002z" fill="#1F8AFF"/><path d="M282.641,248.667c-2.184,7.173-2.299,14.806-4.014,22.095c-0.443,1.887,2.463,2.692,2.914,0.803    c1.691-7.295,1.812-14.928,4.006-22.102C286.121,247.6,283.215,246.812,282.641,248.667z" fill="#1F8AFF"/><path d="M304.742,278.796c-2.01,8.035-4.021,16.079-6.023,24.105c-0.469,1.888,2.438,2.683,2.906,0.804    c2.002-8.035,4.014-16.07,6.023-24.104C308.125,277.713,305.211,276.916,304.742,278.796z" fill="#1F8AFF"/><path d="M354.914,345.48c-0.303,6.647-4.021,13-4.021,19.402c-0.016,4.833-0.09,9.84-1.961,14.346    c-0.74,1.806,2.176,2.577,2.912,0.813c1.773-4.31,1.938-9.054,2.037-13.649c0.164-7.025,3.709-13.714,4.037-20.912    C358.01,343.544,354.996,343.552,354.914,345.48z" fill="#1F8AFF"/><path d="M368.965,339.465c-0.689,11.407-3.52,22.7-4.014,34.142c-0.09,1.945,2.93,1.937,3.012,0    c0.494-11.425,3.334-22.742,4.014-34.142C372.1,337.52,369.08,337.527,368.965,339.465z" fill="#1F8AFF"/></g><g><path d="M400.711,437.87c-16.135-1.117-33.725-4.268-55.375-9.931c-9.086-2.373-18.818-4.769-28.438-6.278    c-4.811-0.756-8.848-2.2-13.133-3.743c-2.74-0.985-5.564-2.011-8.658-2.856c-0.895-0.246-1.666-0.641-2.281-1.166l-0.312-0.278    l-0.41-0.106c-0.566-0.156-1.01-0.32-1.387-0.533c-2.381-1.363-4.029-3.645-5.613-5.836l-1.312-1.813    c-0.182-0.197-0.74-0.788-0.74-0.788l-0.574-0.361c-2.299-0.936-3.619-2.831-3.619-5.171v-0.722l-0.5-0.526    c-3.137-3.29-6.295-6.91-9.35-10.414c-6.36-7.304-12.942-14.872-20.279-20.608c-9.538-7.452-18.934-16.283-26.986-23.981    c-5.006-4.793-10.669-9.291-16.136-13.641c-8.814-7.018-17.933-14.272-24.646-22.932c-2.914-3.768-5.926-7.519-8.954-11.285    c-7.042-8.799-14.338-17.892-20.485-27.183c-5.081-7.673-12.361-16.356-21.643-25.812c-2.257-2.281-4.867-4.095-7.396-5.844    c-2.806-1.945-5.465-3.775-7.6-6.188c-3.693-4.169-7.304-8.561-10.792-12.804c-5.663-6.877-11.515-13.985-17.9-20.419    c-0.164-0.164-0.328-0.328-0.492-0.5c2.848-2.717,5.704-5.532,8.65-8.561c1.863,2.298,3.743,4.604,5.663,6.878    c2.405,2.848,4.744,5.86,7.215,9.061c6.959,8.963,14.141,18.237,23.341,24.22c9.003,5.844,19.492,17.063,28.069,30.005    c13.739,20.757,25.861,36.022,37.055,46.692c5.352,5.088,11.048,9.93,16.555,14.608c6.558,5.581,13.336,11.358,19.516,17.53    c4.474,4.474,9.397,8.635,14.158,12.648c4.744,3.996,9.644,8.142,14.083,12.573c4.876,4.875,9.644,10.029,14.257,15.011    c4.596,4.957,9.34,10.078,14.223,14.971l1.461,1.477l1.264-1.657c8.494-11.22,21.865-20.699,33.658-29.062    c3.422-2.421,6.697-4.76,9.727-7.017c12.408-9.315,25.982-17.629,39.107-25.665c7.771-4.76,15.814-9.692,23.547-14.781    l1.943-1.279l-1.723-1.561c-7.123-6.492-13.387-14.173-19.443-21.608l-1.066-1.314c-15.24-18.68-27.807-32.394-40.725-44.507    c-7.994-7.485-16.242-14.724-24.219-21.733c-19.205-16.874-37.352-32.812-53.397-52.731c-4.44-5.516-9.184-10.957-13.788-16.226    c-5.417-6.196-11.015-12.606-16.046-19.074c-1.781-2.282-3.875-4.145-5.909-5.942c-2.167-1.913-4.203-3.727-5.835-5.967    c-5.393-7.395-10.136-12.787-14.946-16.973c-2.536-2.224-4.645-4.834-6.434-7.296c3.217-2.298,6.524-4.596,9.866-6.845    c0.542,0.657,1.099,1.33,1.666,1.987c5.457,6.155,10.939,12.229,16.406,18.286c13.196,14.642,26.845,29.776,39.559,45.567    c10.677,13.246,23.743,28.693,39.714,42.686c4.695,4.12,9.506,8.166,14.322,12.237c7.789,6.566,15.832,13.346,23.26,20.313    c15.143,14.174,28.561,28.488,41.012,43.753c1.551,1.905,3.111,3.874,4.703,5.876c7.018,8.849,14.271,18,23.193,24.688    l0.262,0.197l0.33,0.098c1.098,0.312,2.035,1.01,2.781,2.077l0.131,0.205l0.189,0.156c1.215,1.01,1.904,2.331,1.994,3.824    l0.025,0.312l0.123,0.287c7.943,18.581,4.111,46.24,1.115,61.07c-1.625,8.052-2.33,15.774-3.076,23.941l-0.141,1.51    c-0.172,1.888-0.156,3.915-0.148,6.073c0.025,3.768,0.049,7.666-0.977,10.562c-1.051,3.046-1.092,5.926-1.133,8.463    c-0.049,3.856-0.09,6.894-3.191,10.004c-1.1,1.1-2.348,1.658-3.709,1.658l0,0c-0.33,0-0.65-0.033-0.961-0.09l-0.344-0.065    l-0.338,0.065c-0.377,0.073-0.779,0.122-1.207,0.122L400.711,437.87z M403.977,324.289c-4.957,3.251-10.078,6.435-15.027,9.521    c-3.832,2.389-7.658,4.769-11.465,7.206c-3.316,2.125-6.936,4.268-10.439,6.336c-6.139,3.645-12.492,7.395-17.982,11.507    l-3.109,2.339c-9.473,7.099-19.281,14.437-28.58,22.151c-1.09,0.902-2.314,1.88-3.627,2.913    c-5.4,4.285-12.139,9.628-15.799,15.283l-1.338,2.059l2.363,0.666c3.012,0.846,5.951,1.789,8.898,2.749    c3.963,1.281,8.059,2.609,12.318,3.661c3.693,0.91,7.459,1.624,11.104,2.33c4.039,0.771,8.207,1.575,12.238,2.627    c17.703,4.62,36.613,9.102,54.898,10.595l2.338,0.189l-0.41-2.307c-0.098-0.559-0.238-1.165-0.393-1.789    c-0.312-1.265-0.697-2.832-0.42-3.636c1.42-4.055,1.617-8.355,1.799-12.516c0.072-1.601,0.146-3.193,0.287-4.753    c0.164-1.765,0.311-3.513,0.459-5.236c0.574-6.877,1.125-13.378,2.486-20.123c3.004-14.856,5.811-35.702,2.158-50.689    l-0.615-2.495L403.977,324.289z" fill="#0077BF"/><path d="M91.296,190.929c-2.856,0-4.514-2.421-4.9-4.834c-0.386-2.446,0.435-5.45,3.899-6.583    c4.981-1.625,10.209-9.151,14.83-15.791c1.913-2.75,3.718-5.351,5.081-6.853c7.715-8.536,17.055-16.283,26.09-23.785l0.78-0.648    c5.918-4.916,13.222-8.946,20.29-12.836c3.799-2.085,7.739-4.251,11.375-6.525c10.415-6.492,20.034-13.534,27.248-18.942    c0.977-0.73,1.953-1.108,2.905-1.108c2.274,0,3.973,2.043,4.646,4.071c0.345,1.042,1.223,4.645-2.117,7.148    c-9.307,6.985-19.345,13.304-29.038,19.427c-12.771,8.051-25.984,16.382-37.695,26.304c-9.045,7.673-18.5,16.242-26.297,26.944    c-4.408,6.033-8.888,11.621-15.225,13.69C92.528,190.822,91.896,190.929,91.296,190.929L91.296,190.929z" fill="#0077BF"/><path d="M111.133,215.33c-2.273,0-3.973-2.044-4.654-4.071c-0.344-1.043-1.214-4.646,2.126-7.141    c2.043-1.551,3.242-4.202,4.391-6.763c0.771-1.699,1.501-3.325,2.364-4.35c4.268-5.105,8.436-9.397,12.771-13.099    c2.618-2.249,5.244-4.531,7.886-6.829c6.78-5.885,13.781-11.966,20.822-17.539c3.021-2.396,6.009-4.817,8.987-7.239    c6.779-5.507,13.78-11.203,21.102-16.333c5.982-4.202,12.154-8.002,18.121-11.671c3.456-2.125,6.927-4.268,10.415-6.508    c0.977-0.624,1.954-0.944,2.914-0.944c2.634,0,4.514,2.298,5.138,4.432c0.288,0.977,0.961,4.317-2.404,6.476    c-3.841,2.47-7.691,4.892-11.531,7.312c-5.598,3.521-11.393,7.165-17.087,10.924c-9.226,6.082-17.613,13.395-25.722,20.469    c-2.79,2.438-5.581,4.875-8.404,7.264c-3.045,2.561-6.188,5.047-9.339,7.542c-6.78,5.368-13.796,10.916-19.805,17.334    c-2.674,2.873-4.587,5.967-6.459,8.946c-2.47,3.98-4.81,7.748-8.724,10.677C113.062,214.96,112.085,215.33,111.133,215.33    L111.133,215.33z" fill="#0077BF"/><path d="M370.549,335.632c-0.953,0-1.936-0.32-2.912-0.952c-11.705-7.584-22.096-18.631-32.156-29.3    c-2.799-2.972-5.564-5.901-8.307-8.7c-8.691-8.913-21.453-22.414-31.828-36.925c-8.076-11.276-17.883-21.618-27.371-31.623    c-7.271-7.657-14.773-15.577-21.396-23.809c-1.395-1.732-2.783-3.472-4.186-5.228c-10.759-13.525-21.88-27.495-35.882-37.614    c-3.357-2.43-2.527-5.967-2.199-6.993c0.788-2.454,2.758-4.153,4.768-4.153c0.952,0,1.93,0.353,2.914,1.059    c13.379,9.685,24.229,22.323,35.078,35.513c14.157,17.21,29.285,34.429,49.039,55.825c5.803,6.28,11.186,13.05,16.391,19.608    c6.172,7.748,12.531,15.758,19.664,23.045c3.143,3.218,6.318,6.657,9.553,10.17c9.857,10.661,20.051,21.691,31.549,29.152    c3.365,2.183,2.691,5.54,2.396,6.517C375.029,333.35,373.166,335.632,370.549,335.632L370.549,335.632z" fill="#0077BF"/><path d="M304.709,377.324c-2.059,0-4.898-1.083-6.131-4.119c-1.592-3.924-4.43-6.583-7.188-9.16    c-1.592-1.494-3.104-2.905-4.35-4.53c-0.896-1.156-1.691-2.313-2.48-3.447c-2.199-3.151-4.268-6.13-7.805-8.716    c-2.166-1.584-3.594-3.85-5.104-6.255c-1.635-2.593-3.316-5.26-6.025-7.156c-3.635-2.544-6.787-6.36-9.84-10.037    c-2.413-2.93-4.924-5.941-7.723-8.437c-4.547-4.031-8.954-8.363-13.222-12.55c-2.938-2.889-5.876-5.777-8.896-8.601    c-11.146-10.465-21.635-21.635-31.762-32.436c-4.695-4.999-9.389-10.005-14.199-14.994c-1.954-2.028-3.964-4.08-5.983-6.131    c-5.146-5.261-10.464-10.686-15.232-16.152c-1.535-1.756-3.226-3.365-4.852-4.933c-2.609-2.487-5.063-4.851-6.911-7.69    c-1.107-1.715-1.248-3.463-0.385-5.039c1.042-1.921,3.38-3.25,5.678-3.25c1.347,0,3.259,0.452,4.679,2.659    c2.962,4.563,7.493,8.454,11.884,12.221c2.584,2.216,5.031,4.309,7.091,6.476c6.369,6.697,12.515,13.878,18.458,20.838    l3.726,4.334c11.055,12.859,23.514,24.654,35.57,36.054c3.759,3.562,7.518,7.116,11.244,10.72    c3.037,2.921,6.238,5.785,9.628,8.814c9.775,8.74,19.869,17.793,25.884,28.504c1.396,2.479,3.432,4.127,5.41,5.704    c1.41,1.149,2.758,2.232,3.768,3.562c0.992,1.264,1.895,2.553,2.781,3.808c1.92,2.733,3.906,5.549,6.607,8.135    c3.75,3.594,6.197,6.558,8.166,9.905l0.205,0.337l0.328,0.229c1.436,0.993,2.158,2.47,2.158,4.383v1.511    c0,1.747-0.541,3.176-1.568,4.128C307.41,376.849,306.123,377.324,304.709,377.324L304.709,377.324z" fill="#0077BF"/><path d="M398.232,432.157c-0.566,0-1.148-0.033-1.748-0.115c-0.92-0.122-1.945-0.427-3.029-0.738    c-0.918-0.271-1.838-0.533-2.74-0.722l-0.838-0.173l-0.656,0.542c-0.764,0.624-1.715,0.936-2.832,0.936    c-0.213,0-0.451-0.017-0.682-0.032c-1.451-0.148-2.871-0.437-4.373-0.73c-1.502-0.305-3.07-0.616-4.67-0.781    c-1.553-0.164-2.857-0.786-3.875-1.838l-0.887-0.91l-1.148,0.5c-0.902,0.401-1.855,0.607-2.773,0.607    c-1.412,0-3.891-0.509-4.521-3.924l-0.1-0.549l-0.436-0.747c-1.025-1.051-2.461-3.241-0.482-6.188    c7.18-10.719,16.045-17.325,26.32-24.983l1.641-1.23c2.479-1.854,5.777-3.989,9.193-3.989c1.172,0,2.281,0.238,3.404,0.739    c4.811,2.133,5.18,8.65,5.188,10.596c0,1.829-0.049,3.652-0.09,5.466c-0.066,2.913-0.141,5.917-0.016,8.954l0.033,0.853    c0.139,3.391,0.27,6.887-0.346,10.096c-0.346,4.366-2.143,6.796-5.695,7.847c-0.133,0.049-0.248,0.049-0.371,0.065l-0.402,0.057    C400.227,432.042,399.242,432.157,398.232,432.157L398.232,432.157z" fill="#0077BF"/><path d="M89.729,199.325c-2.011,0-4.111-1.173-4.883-2.725c-0.09-0.18-0.148-0.311-0.197-0.418l-0.148-0.37    l-0.821-0.804c-0.607-0.771-1.313-1.707-1.994-2.667c-1.929-2.585-4.218-4.563-6.426-6.459c-1.239-1.067-2.471-2.126-3.636-3.3    c-8.93-8.929-13.55-26.116-15.512-35.554c-2.355-11.358-1.929-28.717,0.985-40.363c3.652-14.601,9.915-25.82,19.115-34.323    c14.198-13.115,33.757-20.338,55.054-20.338c32.263,0,63.246,16.218,78.938,41.332c1.395,2.216,0.944,4.013,0.32,5.138    c-1.059,1.904-3.374,3.234-5.638,3.234l0,0c-1.338,0-3.226-0.46-4.621-2.692c-14.109-22.554-40.577-30.761-62.063-35.382    c-3.119-0.673-6.476-1.018-9.973-1.018c-20.009,0-45.952,11.818-54.742,31.606c-11.204,25.205-9.11,55.957,5.195,76.524    c2.38,3.422,5.129,6.443,7.789,9.356c2.536,2.774,4.925,5.392,6.697,8.06l0.222,0.329l0.336,0.196    c2.314,1.461,2.865,4.531,2.216,6.804c-0.336,1.157-1.51,3.833-5.211,3.833H89.729z" fill="#0077BF"/></g></g></svg>