<?xml version="1.0" ?><svg height="32px" version="1.1" viewBox="0 0 32 32" width="32px" xmlns="http://www.w3.org/2000/svg" xmlns:sketch="http://www.bohemiancoding.com/sketch/ns" xmlns:xlink="http://www.w3.org/1999/xlink"><title/><desc/><defs/><g fill="none" fill-rule="evenodd" id="Page-1" stroke="none" stroke-width="1"><g fill="#157EFB" id="icon-29-information"><path d="M17.5,28 C24.4035597,28 30,22.4035597 30,15.5 C30,8.59644029 24.4035597,3 17.5,3 C10.5964403,3 5,8.59644029 5,15.5 C5,22.4035597 10.5964403,28 17.5,28 L17.5,28 Z M18,21 L18,14.75 L18,14 L15,14 L15,15 L17,15 L17,21 L15,21 L15,22 L20,22 L20,21 L18,21 L18,21 L18,21 Z M17.5,12 C18.3284272,12 19,11.3284272 19,10.5 C19,9.67157283 18.3284272,9 17.5,9 C16.6715728,9 16,9.67157283 16,10.5 C16,11.3284272 16.6715728,12 17.5,12 L17.5,12 Z" id="information"/></g></g></svg>